<svg width="32" height="32" viewBox="0 0 32 32" fill="none" xmlns="http://www.w3.org/2000/svg">
  <!-- Background circle with gradient -->
  <defs>
    <linearGradient id="faviconGradient" x1="0%" y1="0%" x2="100%" y2="100%">
      <stop offset="0%" style="stop-color:#1E40AF;stop-opacity:1" />
      <stop offset="50%" style="stop-color:#7C3AED;stop-opacity:1" />
      <stop offset="100%" style="stop-color:#1E40AF;stop-opacity:1" />
    </linearGradient>
    <linearGradient id="innerGradient" x1="0%" y1="0%" x2="100%" y2="100%">
      <stop offset="0%" style="stop-color:#3B82F6;stop-opacity:1" />
      <stop offset="100%" style="stop-color:#8B5CF6;stop-opacity:1" />
    </linearGradient>
    <linearGradient id="accentGradient" x1="0%" y1="0%" x2="100%" y2="100%">
      <stop offset="0%" style="stop-color:#F59E0B;stop-opacity:1" />
      <stop offset="100%" style="stop-color:#F97316;stop-opacity:1" />
    </linearGradient>
  </defs>
  
  <!-- Main circle -->
  <circle cx="16" cy="16" r="15" fill="url(#faviconGradient)" stroke="url(#innerGradient)" stroke-width="1"/>
  
  <!-- Vault door outline -->
  <rect x="9" y="7" width="14" height="18" rx="2" fill="none" stroke="white" stroke-width="1.5" opacity="0.9"/>
  
  <!-- Vault door inner frame -->
  <rect x="11" y="9" width="10" height="14" rx="1" fill="none" stroke="white" stroke-width="1" opacity="0.7"/>
  
  <!-- Vault door handle -->
  <circle cx="16" cy="16" r="2.5" fill="url(#accentGradient)" stroke="white" stroke-width="0.8"/>
  <circle cx="16" cy="16" r="1.2" fill="white"/>
  
  <!-- Clock face inside vault -->
  <circle cx="16" cy="16" r="5" fill="none" stroke="white" stroke-width="1" opacity="0.8"/>
  
  <!-- Clock hands -->
  <line x1="16" y1="16" x2="16" y2="12" stroke="white" stroke-width="1" stroke-linecap="round"/>
  <line x1="16" y1="16" x2="19" y2="16" stroke="white" stroke-width="0.8" stroke-linecap="round"/>
  
  <!-- Center dot -->
  <circle cx="16" cy="16" r="0.6" fill="white"/>
  
  <!-- Hour markers -->
  <line x1="16" y1="11" x2="16" y2="12" stroke="white" stroke-width="0.5" opacity="0.6"/>
  <line x1="16" y1="20" x2="16" y2="21" stroke="white" stroke-width="0.5" opacity="0.6"/>
  <line x1="11" y1="16" x2="12" y2="16" stroke="white" stroke-width="0.5" opacity="0.6"/>
  <line x1="20" y1="16" x2="21" y2="16" stroke="white" stroke-width="0.5" opacity="0.6"/>
  
  <!-- Lock mechanism -->
  <rect x="14" y="5" width="4" height="3" rx="1" fill="url(#accentGradient)" stroke="white" stroke-width="0.5"/>
  <circle cx="16" cy="6.5" r="0.8" fill="white"/>
  
  <!-- Time capsule representation -->
  <circle cx="8" cy="8" r="2" fill="white" opacity="0.9"/>
  <circle cx="24" cy="24" r="2" fill="white" opacity="0.9"/>
  <line x1="10" y1="10" x2="22" y2="22" stroke="white" stroke-width="1" opacity="0.7" stroke-linecap="round"/>
  
  <!-- Sparkle effects -->
  <circle cx="6" cy="6" r="0.8" fill="white" opacity="0.8"/>
  <circle cx="26" cy="26" r="0.8" fill="white" opacity="0.8"/>
  <circle cx="6" cy="26" r="0.5" fill="white" opacity="0.6"/>
  <circle cx="26" cy="6" r="0.5" fill="white" opacity="0.6"/>
  
  <!-- Glow effect -->
  <circle cx="16" cy="16" r="17" fill="none" stroke="url(#innerGradient)" stroke-width="0.5" opacity="0.3"/>
</svg>
